<svg width="256" height="256" viewBox="0 0 256 256" fill="none" xmlns="http://www.w3.org/2000/svg">
<rect width="256" height="256" fill="white"/>
<g clip-path="url(#clip0)">
<path d="M133.708 240.323C179.128 240.323 215.948 234.728 215.948 227.827C215.948 220.926 179.128 215.331 133.708 215.331C88.2878 215.331 51.4675 220.926 51.4675 227.827C51.4675 234.728 88.2878 240.323 133.708 240.323Z" fill="#F2F2F2"/>
<path d="M185.379 183.593C186.259 183.913 187.202 184.024 188.132 183.918C189.063 183.811 189.956 183.49 190.742 182.98C191.527 182.469 192.183 181.783 192.658 180.976C193.133 180.169 193.414 179.262 193.479 178.328C193.544 177.393 193.391 176.457 193.032 175.591C192.673 174.726 192.118 173.956 191.411 173.342C190.704 172.728 189.863 172.286 188.956 172.052C188.049 171.818 187.1 171.798 186.184 171.994L186.336 175.106L184.863 172.439C183.417 173.118 182.301 174.343 181.758 175.845C181.566 176.371 181.448 176.922 181.41 177.481C181.317 178.793 181.654 180.099 182.371 181.202C183.087 182.305 184.143 183.144 185.379 183.593V183.593Z" fill="#57B894"/>
<path d="M192.666 219.698C192.146 217.051 194.399 214.704 196.625 213.178C198.85 211.653 201.45 210.154 202.209 207.565C203.301 203.844 200.05 200.436 197.52 197.498C195.643 195.317 194.032 192.922 192.718 190.361C192.192 189.335 191.708 188.262 191.57 187.116C191.37 185.467 191.9 183.826 192.434 182.253C194.213 177.012 196.114 171.815 198.138 166.662" stroke="#3F3D56" stroke-miterlimit="10"/>
<path d="M185.628 182.792C186.508 183.112 187.451 183.223 188.382 183.116C189.312 183.01 190.205 182.689 190.991 182.178C191.776 181.668 192.432 180.982 192.907 180.175C193.382 179.367 193.663 178.461 193.728 177.526C193.793 176.592 193.64 175.655 193.281 174.79C192.922 173.925 192.367 173.155 191.66 172.541C190.953 171.926 190.112 171.485 189.205 171.251C188.299 171.017 187.35 170.997 186.433 171.192L186.585 174.305L185.112 171.637C183.667 172.316 182.55 173.542 182.007 175.044C181.815 175.57 181.698 176.121 181.659 176.68C181.566 177.992 181.904 179.298 182.62 180.401C183.336 181.504 184.392 182.343 185.628 182.792Z" stroke="#3F3D56" stroke-miterlimit="10"/>
<path d="M191.927 165.587C192.273 164.634 192.853 163.783 193.613 163.112C194.374 162.442 195.291 161.974 196.28 161.752L196.778 164.711L197.702 161.603C198.984 161.622 200.226 162.048 201.25 162.819C202.274 163.59 203.027 164.667 203.399 165.894C203.771 167.121 203.744 168.434 203.321 169.644C202.898 170.855 202.101 171.899 201.046 172.627C199.991 173.355 198.732 173.729 197.45 173.695C196.169 173.661 194.931 173.22 193.916 172.436C192.902 171.653 192.162 170.567 191.804 169.336C191.447 168.105 191.49 166.792 191.927 165.587V165.587Z" fill="#57B894"/>
<path d="M192.259 164.518C192.605 163.565 193.185 162.714 193.945 162.044C194.706 161.374 195.623 160.906 196.613 160.683L197.11 163.642L198.034 160.534C199.316 160.553 200.558 160.979 201.582 161.75C202.606 162.522 203.359 163.598 203.731 164.825C204.103 166.052 204.076 167.365 203.653 168.576C203.23 169.786 202.434 170.831 201.378 171.559C200.323 172.287 199.064 172.661 197.782 172.626C196.501 172.592 195.263 172.151 194.248 171.368C193.234 170.584 192.494 169.499 192.137 168.267C191.779 167.036 191.822 165.723 192.259 164.518H192.259Z" stroke="#3F3D56" stroke-miterlimit="10"/>
<path d="M196.459 197.558C197.855 198.064 199.388 198.039 200.767 197.488C202.146 196.936 203.274 195.896 203.935 194.567C204.597 193.237 204.746 191.71 204.354 190.278C203.962 188.845 203.057 187.607 201.811 186.799L201.102 189.188L200.599 186.193C200.594 186.191 200.589 186.189 200.583 186.187C199.837 185.916 199.044 185.794 198.25 185.83C197.456 185.865 196.677 186.056 195.957 186.392C195.238 186.729 194.591 187.203 194.055 187.79C193.519 188.376 193.103 189.062 192.832 189.809C192.561 190.556 192.44 191.349 192.476 192.143C192.512 192.936 192.703 193.715 193.04 194.435C193.377 195.154 193.852 195.801 194.439 196.336C195.025 196.872 195.712 197.287 196.459 197.558H196.459Z" fill="#57B894"/>
<path d="M196.746 196.475C198.143 196.982 199.676 196.957 201.055 196.405C202.434 195.853 203.562 194.814 204.223 193.484C204.885 192.154 205.034 190.628 204.642 189.195C204.25 187.763 203.345 186.525 202.099 185.717L201.39 188.105L200.887 185.111C200.882 185.108 200.876 185.106 200.871 185.105C200.124 184.833 199.332 184.712 198.538 184.747C197.744 184.782 196.965 184.973 196.245 185.309C195.525 185.646 194.878 186.121 194.342 186.707C193.806 187.293 193.39 187.979 193.119 188.726C192.849 189.473 192.727 190.266 192.763 191.06C192.799 191.854 192.99 192.633 193.327 193.352C193.664 194.072 194.139 194.718 194.726 195.254C195.313 195.79 195.999 196.205 196.746 196.475V196.475Z" stroke="#3F3D56" stroke-miterlimit="10"/>
<path d="M190.162 207.602C190.402 208.968 191.105 210.209 192.152 211.119C193.199 212.028 194.526 212.55 195.912 212.597C197.298 212.644 198.658 212.212 199.764 211.375C200.87 210.538 201.654 209.347 201.986 208C202.317 206.653 202.175 205.234 201.584 203.979C200.993 202.725 199.989 201.711 198.739 201.11C197.49 200.508 196.072 200.354 194.722 200.673C193.373 200.993 192.174 201.767 191.328 202.866L194.022 206.922L190.34 204.769C190.055 205.685 189.994 206.657 190.162 207.602Z" fill="#57B894"/>
<path d="M190.411 206.8C190.651 208.166 191.354 209.408 192.401 210.317C193.448 211.227 194.775 211.749 196.161 211.795C197.548 211.842 198.907 211.411 200.013 210.574C201.119 209.737 201.903 208.545 202.235 207.198C202.566 205.852 202.424 204.432 201.833 203.178C201.242 201.923 200.238 200.91 198.988 200.308C197.739 199.706 196.321 199.552 194.971 199.872C193.622 200.192 192.423 200.966 191.577 202.064L194.271 206.12L190.589 203.967C190.304 204.884 190.243 205.855 190.411 206.8Z" stroke="#3F3D56" stroke-miterlimit="10"/>
<path d="M173.513 49.0815C173.741 44.7336 175.628 40.6388 178.786 37.6416C181.944 34.6444 186.132 32.9735 190.486 32.9734C191.003 32.9734 191.513 33.0003 192.018 33.0454C194.003 29.6297 196.85 26.7946 200.274 24.8233C203.698 22.8521 207.579 21.8137 211.53 21.8118C215.481 21.81 219.363 22.8447 222.789 24.8127C226.215 26.7807 229.065 29.6131 231.053 33.027C231.479 32.995 231.908 32.9734 232.342 32.9734C236.696 32.9735 240.884 34.6444 244.042 37.6416C247.2 40.6388 249.087 44.7336 249.315 49.0816" fill="#F2F2F2"/>
<path d="M177.053 47.774C177.281 43.4261 179.168 39.3313 182.326 36.3341C185.484 33.3369 189.672 31.666 194.026 31.6659C194.543 31.6659 195.053 31.6928 195.558 31.738C197.543 28.3222 200.39 25.4871 203.814 23.5159C207.238 21.5446 211.119 20.5062 215.07 20.5043C219.021 20.5025 222.903 21.5372 226.329 23.5052C229.755 25.4732 232.605 28.3056 234.593 31.7195C235.019 31.6875 235.448 31.6659 235.882 31.6659C240.236 31.666 244.424 33.3369 247.582 36.3341C250.74 39.3313 252.627 43.4261 252.855 47.7741" stroke="#3F3D56" stroke-miterlimit="10"/>
<path d="M50.0073 129.869C50.2348 125.521 52.1223 121.426 55.2803 118.429C58.4384 115.432 62.6263 113.761 66.9802 113.761C67.4967 113.761 68.0068 113.788 68.5116 113.833C70.4971 110.417 73.344 107.582 76.768 105.611C80.192 103.64 84.0733 102.601 88.0242 102.599C91.9751 102.597 95.8573 103.632 99.2832 105.6C102.709 107.568 105.559 110.401 107.547 113.814C107.973 113.782 108.402 113.761 108.836 113.761C113.19 113.761 117.378 115.432 120.536 118.429C123.694 121.426 125.581 125.521 125.809 129.869" fill="#F2F2F2"/>
<path d="M53.5472 128.562C53.7748 124.214 55.6622 120.119 58.8203 117.122C61.9784 114.124 66.1662 112.453 70.5201 112.453C71.0367 112.453 71.5468 112.48 72.0516 112.525C74.0371 109.11 76.884 106.275 80.308 104.303C83.732 102.332 87.6133 101.294 91.5641 101.292C95.515 101.29 99.3973 102.325 102.823 104.293C106.249 106.261 109.099 109.093 111.087 112.507C111.513 112.475 111.942 112.453 112.376 112.453C116.73 112.453 120.918 114.124 124.076 117.122C127.234 120.119 129.121 124.214 129.349 128.562" stroke="#3F3D56" stroke-miterlimit="10"/>
<path d="M13.9726 44.7225C14.2001 40.3745 16.0876 36.2797 19.2457 33.2825C22.4037 30.2853 26.5916 28.6144 30.9455 28.6143C31.4621 28.6143 31.9721 28.6412 32.477 28.6864C34.4624 25.2706 37.3093 22.4355 40.7333 20.4643C44.1573 18.493 48.0386 17.4546 51.9895 17.4528C55.9404 17.4509 59.8226 18.4856 63.2485 20.4536C66.6744 22.4216 69.524 25.254 71.5127 28.6679C71.9385 28.6359 72.3673 28.6143 72.8014 28.6143C77.1553 28.6144 81.3431 30.2853 84.5012 33.2825C87.6593 36.2797 89.5467 40.3745 89.7743 44.7225" fill="#F2F2F2"/>
<path d="M17.5126 43.415C17.7401 39.0671 19.6276 34.9722 22.7856 31.9751C25.9437 28.9779 30.1316 27.307 34.4855 27.3069C35.002 27.3069 35.5121 27.3338 36.0169 27.3789C38.0024 23.9632 40.8493 21.1281 44.2733 19.1568C47.6973 17.1856 51.5786 16.1472 55.5295 16.1453C59.4804 16.1435 63.3626 17.1782 66.7885 19.1462C70.2143 21.1142 73.0639 23.9466 75.0526 27.3605C75.4785 27.3285 75.9073 27.3069 76.3413 27.3069C80.6952 27.307 84.8831 28.9779 88.0412 31.9751C91.1992 34.9723 93.0867 39.0671 93.3142 43.415" stroke="#3F3D56" stroke-miterlimit="10"/>
<path d="M88.7429 79.1981C88.7429 79.1981 119.291 94.3669 124.769 92.2601C130.246 90.1533 132.142 71.4031 132.142 71.4031L109.6 67.1896L88.7429 79.1981Z" fill="#6C63FF"/>
<path opacity="0.1" d="M88.7429 79.1981C88.7429 79.1981 119.291 94.3669 124.769 92.2601C130.246 90.1533 132.142 71.4031 132.142 71.4031L109.6 67.1896L88.7429 79.1981Z" fill="black"/>
<path d="M152.051 56.5504H132.037V74.0366H152.051V56.5504Z" fill="#FF6584"/>
<path opacity="0.1" d="M152.051 56.5504H132.037V74.0366H152.051V56.5504Z" fill="black"/>
<path d="M113.813 131.025C113.813 131.025 112.971 149.354 118.659 148.932C124.347 148.511 118.659 131.657 118.659 131.657L113.813 131.025Z" fill="#FBBEBE"/>
<path d="M137.199 59.1839C137.199 59.1839 138.463 67.1896 136.145 68.243C133.828 69.2964 132.353 70.1391 132.353 70.1391L137.62 73.7206L147.311 74.3526L149.839 72.4565L152.157 70.3498C152.157 70.3498 148.364 69.507 148.364 67.611C148.364 65.7149 148.154 60.0266 148.154 60.0266L137.199 59.1839Z" fill="#FBBEBE"/>
<path opacity="0.1" d="M137.199 59.1839C137.199 59.1839 138.463 67.1896 136.145 68.243C133.828 69.2964 132.353 70.1391 132.353 70.1391L137.62 73.7206L147.311 74.3526L149.839 72.4565L152.157 70.3498C152.157 70.3498 148.364 69.507 148.364 67.611C148.364 65.7149 148.154 60.0266 148.154 60.0266L137.199 59.1839Z" fill="black"/>
<path d="M123.926 134.185C123.926 134.185 117.816 153.778 117.816 168.104C117.816 168.104 107.704 190.857 108.125 202.023L105.597 217.402L109.179 218.666L111.917 216.349C111.917 216.349 112.76 208.132 115.499 204.129C118.238 200.127 124.558 181.166 124.558 181.166C124.558 181.166 141.412 145.772 140.78 140.716C140.148 135.66 123.926 134.185 123.926 134.185Z" fill="#FBBEBE"/>
<path d="M161.216 129.761C161.216 129.761 165.219 131.657 159.53 165.365C159.53 165.365 162.69 187.697 159.952 199.916L159.53 212.135H155.106L154.263 210.871C154.263 210.871 154.053 199.916 152.578 196.966C151.103 194.017 149.839 176.952 149.839 176.952C149.839 176.952 143.098 142.19 144.572 139.241C146.047 136.292 161.216 129.761 161.216 129.761Z" fill="#FBBEBE"/>
<path d="M104.965 213.821C104.965 213.821 106.44 217.191 109.179 216.349C111.917 215.506 112.549 215.506 112.549 215.506C112.549 215.506 110.653 225.197 111.285 229.832C111.917 234.467 110.864 237.416 106.65 237.416C102.437 237.416 101.805 232.36 101.805 232.36L103.701 220.352L104.965 213.821Z" fill="#2F2E41"/>
<path d="M153.421 208.554C153.421 208.554 154.895 211.503 157.213 210.871C159.53 210.239 160.373 209.186 160.373 209.186C160.373 209.186 160.162 215.717 161.005 218.666C161.848 221.616 163.744 230.043 159.32 230.464C158.105 230.612 156.874 230.363 155.812 229.756C154.749 229.149 153.91 228.215 153.421 227.093V208.554L153.421 208.554Z" fill="#2F2E41"/>
<path d="M142.887 64.6615C148.006 64.6615 152.157 60.5113 152.157 55.3917C152.157 50.2722 148.006 46.1219 142.887 46.1219C137.767 46.1219 133.617 50.2722 133.617 55.3917C133.617 60.5113 137.767 64.6615 142.887 64.6615Z" fill="#FBBEBE"/>
<path d="M159.952 72.0352C159.952 72.0352 152.609 69.152 149.96 69.5402C148.818 70.5101 147.488 71.2327 146.053 71.6621C144.618 72.0916 143.109 72.2186 141.623 72.0352C136.567 71.4031 134.589 68.9766 134.589 68.9766C134.589 68.9766 120.976 72.0352 121.819 73.2992C122.662 74.5633 126.454 95.2096 126.454 95.2096C126.454 95.2096 128.982 113.117 126.033 119.227C123.083 125.336 121.608 135.449 122.873 136.292C124.137 137.134 138.252 140.926 139.937 141.98C141.623 143.033 142.255 139.452 143.308 140.084C144.362 140.716 146.679 141.769 148.154 140.926C149.628 140.084 163.954 132.499 163.533 131.025C163.112 129.55 157.634 111.642 155.738 108.061C153.842 104.479 155.317 96.895 156.37 95.4203C157.424 93.9455 159.53 92.2601 159.952 88.0466C160.373 83.833 159.952 72.0352 159.952 72.0352Z" fill="#2F2E41"/>
<path d="M122.283 72.6481C122.283 72.6481 120.555 73.9313 119.923 76.6701C119.291 79.4089 118.448 101.319 118.448 101.319C118.448 101.319 110.653 131.446 112.339 132.078C114.024 132.71 118.87 133.974 119.502 133.342C120.134 132.71 127.297 107.218 126.665 104.479C126.033 101.741 127.507 93.7349 127.507 93.7349L122.283 72.6481Z" fill="#2F2E41"/>
<path d="M161.216 111.853C161.216 111.853 149.839 106.165 148.575 109.957C147.311 113.749 160.584 117.752 160.584 117.752C160.584 117.752 165.219 116.067 165.219 115.013C165.219 113.96 161.216 111.853 161.216 111.853Z" fill="#FBBEBE"/>
<path d="M157.634 72.8779L159.952 72.0352C159.952 72.0352 161.216 71.1925 162.69 74.3526C164.165 77.5128 180.177 96.0523 177.227 101.951C174.278 107.85 164.587 119.859 164.165 119.016C163.744 118.173 158.898 111.853 159.741 111.221C160.584 110.589 170.275 101.951 169.011 100.687C167.747 99.4232 162.48 88.6787 159.53 88.2573C156.581 87.8359 157.634 72.8779 157.634 72.8779Z" fill="#2F2E41"/>
<path d="M132.669 55.0757C132.669 55.0757 100.543 42.1585 72.734 29.7285C72.734 29.7285 58.1973 26.147 50.6129 32.8887C50.6129 32.8887 56.9332 32.046 56.9332 35.6275C56.9332 35.6275 62.4108 42.7905 45.346 44.0546C33.4616 44.9349 28.7298 52.0482 26.9522 56.2859C25.5644 59.6877 23.1248 62.5562 19.99 64.4722C15.8825 66.9272 9.92933 68.7333 3 65.5436C3 65.5436 3.39393 66.1492 4.14118 67.1583C17.52 85.2257 67.3417 100.95 84.9351 86.9536C95.8079 78.3039 113.044 67.3713 125.401 72.8779C144.783 81.5156 148.364 77.7234 148.364 77.7234L149.207 75.406C149.207 75.406 130.457 70.3498 130.036 63.8188C129.614 57.2878 132.669 55.0757 132.669 55.0757Z" fill="#6C63FF"/>
<path d="M151.419 56.7611C151.419 56.7611 155.949 58.5519 156.792 64.4508C156.792 64.4508 161.637 73.9313 156.16 76.2487C150.682 78.5661 149.629 77.9341 149.629 77.9341V76.8807C149.629 76.8807 155.527 73.2992 154.263 70.5604C152.999 67.8216 151.419 56.7611 151.419 56.7611Z" fill="#6C63FF"/>
<path d="M143.308 83.6224C143.308 83.6224 144.783 79.8302 144.362 79.8302C143.94 79.8302 146.076 77.4979 146.904 78.348C147.732 79.1982 149.207 81.7263 147.522 82.3583C145.836 82.9904 143.308 83.6224 143.308 83.6224Z" fill="#6C63FF"/>
<path d="M153.691 81.3715C153.691 81.3715 149.84 80.0584 149.858 80.4793C149.876 80.9003 147.455 78.8654 148.269 78.0018C149.084 77.1382 151.547 75.558 152.25 77.2152C152.953 78.8724 153.691 81.3715 153.691 81.3715Z" fill="#6C63FF"/>
<path d="M147.522 75.6167C147.522 75.6167 149.445 74.537 150.59 76.2356C151.735 77.9341 149.207 80.8836 147.522 80.8836C145.836 80.8836 145.836 77.3021 145.836 77.3021L147.522 75.6167Z" fill="#6C63FF"/>
<path opacity="0.1" d="M147.522 75.6167C147.522 75.6167 149.445 74.537 150.59 76.2356C151.735 77.9341 149.207 80.8836 147.522 80.8836C145.836 80.8836 145.836 77.3021 145.836 77.3021L147.522 75.6167Z" fill="black"/>
<path d="M134.85 40.2647C133.739 41.1804 132.686 42.2065 131.995 43.4695C131.633 44.1778 131.33 44.915 131.09 45.6735C130.238 48.1254 128.12 50.6086 129.016 53.0446C129.272 53.7397 129.671 54.4726 129.442 55.1769C129.238 55.8023 128.609 56.1673 128.155 56.6427C127.179 57.6632 127.015 59.1943 126.956 60.6048C126.846 63.188 128.267 66.2322 129.983 68.1659C130.356 68.5296 130.701 68.9205 131.016 69.3351C131.228 69.6658 131.367 70.0383 131.423 70.4273C131.479 70.8163 131.45 71.2128 131.339 71.5899L133.84 71.0681C133.93 71.9911 133.958 72.9191 133.924 73.8459C134.517 73.9111 135.114 73.7699 135.615 73.4462C136.116 73.1225 136.49 72.636 136.674 72.0687C136.815 72.7297 137.046 73.3682 137.361 73.9666C138.094 73.0493 138.657 72.0076 139.021 70.8913C139.5 69.4614 139.602 67.9324 139.319 66.4514C139.055 65.3697 138.694 64.3137 138.243 63.2956C137.36 61.063 136.638 58.7703 135.918 56.4799C135.543 55.2904 135.165 54.0622 135.278 52.8203L136.166 52.7237C136.176 52.2331 136.271 51.748 136.447 51.2899C136.967 51.4001 137.468 51.5886 137.932 51.8491L138.957 49.2505C139.632 49.9514 140.602 50.2687 141.531 50.5612L145.062 51.6728L145.083 50.9741C146.573 52.2932 148.271 53.3579 150.107 54.1253C150.003 54.0001 149.927 53.8542 149.885 53.6974C149.842 53.5405 149.833 53.3764 149.859 53.2159C150.729 54.7744 150.381 56.716 149.844 58.4183C149.307 60.1205 148.595 61.8535 148.811 63.6253C148.973 64.9504 149.651 66.2177 149.526 67.5467C149.464 68.2012 149.208 68.824 149.128 69.4765C148.938 71.0329 149.756 72.5149 150.546 73.8693L152.082 71.7599C152.644 70.9879 153.224 70.1991 154.02 69.6714C154.837 69.1297 155.85 68.8866 156.562 68.2128C157.833 67.01 157.671 64.9608 157.258 63.2603C157.038 62.3564 156.772 61.4396 156.853 60.5129C156.99 58.9418 158.082 57.642 158.697 56.1897C159.135 55.1309 159.325 53.9858 159.252 52.8421C159.179 51.6985 158.845 50.5867 158.276 49.5921C157.513 48.2835 156.36 47.2296 155.641 45.8963C154.926 44.5691 154.653 42.9899 153.672 41.8444C153.193 41.3231 152.636 40.8794 152.021 40.5291C149.234 38.8546 146.104 37.8333 142.865 37.5421C139.794 37.221 137.203 38.3247 134.85 40.2647Z" fill="#FF6584"/>
</g>
<defs>
<clipPath id="clip0">
<rect width="250" height="224.323" fill="white" transform="translate(3 16)"/>
</clipPath>
</defs>
</svg>
